<svg width="1596" height="167" viewBox="0 0 1596 167" fill="none" xmlns="http://www.w3.org/2000/svg">
<path d="M46.937 162.764V23.4112H78.5249V162.764H46.937ZM0 27.8705V0H125.462V27.8705H0Z" fill="white"/>
<path d="M187.296 167C176.915 167 167.795 165.216 159.935 161.649C152.223 158.081 145.772 153.325 140.582 147.379C135.539 141.285 131.684 134.522 129.014 127.089C126.493 119.657 125.232 112.077 125.232 104.347V100.111C125.232 92.0841 126.493 84.3547 129.014 76.9226C131.684 69.3418 135.539 62.6529 140.582 56.8558C145.772 50.9101 152.149 46.2279 159.712 42.8091C167.276 39.2416 176.025 37.4579 185.961 37.4579C199.012 37.4579 209.912 40.3565 218.662 46.1535C227.56 51.802 234.233 59.3084 238.682 68.6729C243.131 77.8887 245.356 87.8478 245.356 98.5501V109.698H138.357V90.7463H226.002L216.437 100.111C216.437 92.3814 215.325 85.7668 213.1 80.267C210.876 74.7672 207.465 70.5309 202.868 67.5581C198.419 64.5852 192.783 63.0988 185.961 63.0988C179.14 63.0988 173.356 64.6595 168.61 67.781C163.865 70.9025 160.231 75.4361 157.71 81.3818C155.337 87.1789 154.151 94.1651 154.151 102.34C154.151 109.921 155.337 116.684 157.71 122.63C160.083 128.427 163.716 133.035 168.61 136.454C173.504 139.724 179.733 141.359 187.296 141.359C194.859 141.359 201.014 139.873 205.759 136.9C210.505 133.778 213.545 129.988 214.88 125.529H243.354C241.574 133.853 238.163 141.136 233.121 147.379C228.079 153.622 221.628 158.453 213.768 161.872C206.056 165.291 197.232 167 187.296 167Z" fill="white"/>
<path d="M344.372 162.764V126.866H339.256V86.9559C339.256 79.9697 337.55 74.7672 334.139 71.3485C330.728 67.9297 325.464 66.2203 318.345 66.2203C314.638 66.2203 310.189 66.2946 304.998 66.4433C299.808 66.5919 294.543 66.8149 289.204 67.1121C284.014 67.2608 279.342 67.4838 275.19 67.781V41.4713C278.601 41.174 282.457 40.8767 286.757 40.5794C291.058 40.2822 295.433 40.1335 299.882 40.1335C304.479 39.9849 308.78 39.9106 312.784 39.9106C325.241 39.9106 335.548 41.5456 343.705 44.8157C352.009 48.0859 358.238 53.2141 362.39 60.2003C366.691 67.1865 368.841 76.328 368.841 87.6248V162.764H344.372ZM305.443 165.885C296.693 165.885 288.982 164.324 282.308 161.203C275.783 158.081 270.667 153.622 266.959 147.825C263.4 142.028 261.621 135.042 261.621 126.866C261.621 117.948 263.771 110.664 268.072 105.016C272.521 99.3676 278.675 95.1313 286.535 92.3071C294.543 89.4829 303.886 88.0708 314.564 88.0708H342.592V106.577H314.119C307 106.577 301.513 108.36 297.657 111.928C293.95 115.347 292.096 119.806 292.096 125.306C292.096 130.806 293.95 135.265 297.657 138.684C301.513 142.102 307 143.812 314.119 143.812C318.419 143.812 322.349 143.069 325.909 141.582C329.616 139.947 332.656 137.271 335.029 133.555C337.55 129.691 338.959 124.488 339.256 117.948L346.819 126.644C346.077 135.116 344.001 142.251 340.59 148.048C337.328 153.845 332.73 158.304 326.798 161.426C321.015 164.399 313.896 165.885 305.443 165.885Z" fill="white"/>
<path d="M401.962 162.764V41.6943H426.432V93.6449H424.207C424.207 81.4562 425.764 71.2741 428.879 63.0988C431.993 54.7748 436.59 48.5318 442.671 44.3698C448.899 40.0592 456.611 37.9039 465.805 37.9039H467.14C476.483 37.9039 484.195 40.0592 490.275 44.3698C496.504 48.5318 501.101 54.7748 504.067 63.0988C507.181 71.2741 508.738 81.4562 508.738 93.6449H500.953C500.953 81.4562 502.51 71.2741 505.624 63.0988C508.887 54.7748 513.558 48.5318 519.638 44.3698C525.867 40.0592 533.579 37.9039 542.773 37.9039H544.108C553.451 37.9039 561.237 40.0592 567.465 44.3698C573.694 48.5318 578.365 54.7748 581.48 63.0988C584.742 71.2741 586.373 81.4562 586.373 93.6449V162.764H555.453V90.7463C555.453 83.1656 553.525 77.1455 549.669 72.6862C545.813 68.0783 540.326 65.7744 533.208 65.7744C526.089 65.7744 520.38 68.1526 516.079 72.9092C511.778 77.5171 509.628 83.7601 509.628 91.6382V162.764H478.708V90.7463C478.708 83.1656 476.78 77.1455 472.924 72.6862C469.068 68.0783 463.581 65.7744 456.462 65.7744C449.344 65.7744 443.635 68.1526 439.334 72.9092C435.033 77.5171 432.883 83.7601 432.883 91.6382V162.764H401.962Z" fill="white"/>
<path d="M605.846 112.151V87.8478H800.046V112.151H605.846Z" fill="white"/>
<path d="M842.891 162.764V23.4112H874.479V162.764H842.891ZM795.954 27.8705V0H921.416V27.8705H795.954Z" fill="white"/>
<path d="M983.251 167C972.87 167 963.749 165.216 955.889 161.649C948.178 158.081 941.726 153.325 936.536 147.379C931.494 141.285 927.638 134.522 924.969 127.089C922.447 119.657 921.187 112.077 921.187 104.347V100.111C921.187 92.0841 922.447 84.3547 924.969 76.9226C927.638 69.3418 931.494 62.6529 936.536 56.8558C941.726 50.9101 948.103 46.2279 955.667 42.8091C963.23 39.2416 971.98 37.4579 981.916 37.4579C994.966 37.4579 1005.87 40.3565 1014.62 46.1535C1023.51 51.802 1030.19 59.3084 1034.64 68.6729C1039.09 77.8887 1041.31 87.8478 1041.31 98.5501V109.698H934.312V90.7463H1021.96L1012.39 100.111C1012.39 92.3814 1011.28 85.7668 1009.05 80.267C1006.83 74.7672 1003.42 70.5309 998.822 67.5581C994.373 64.5852 988.738 63.0988 981.916 63.0988C975.094 63.0988 969.31 64.6595 964.565 67.781C959.819 70.9025 956.186 75.4361 953.665 81.3818C951.292 87.1789 950.105 94.1651 950.105 102.34C950.105 109.921 951.292 116.684 953.665 122.63C956.038 128.427 959.671 133.035 964.565 136.454C969.459 139.724 975.687 141.359 983.251 141.359C990.814 141.359 996.968 139.873 1001.71 136.9C1006.46 133.778 1009.5 129.988 1010.83 125.529H1039.31C1037.53 133.853 1034.12 141.136 1029.08 147.379C1024.03 153.622 1017.58 158.453 1009.72 161.872C1002.01 165.291 993.187 167 983.251 167Z" fill="white"/>
<path d="M1140.33 162.764V126.866H1135.21V86.9559C1135.21 79.9697 1133.5 74.7672 1130.09 71.3485C1126.68 67.9297 1121.42 66.2203 1114.3 66.2203C1110.59 66.2203 1106.14 66.2946 1100.95 66.4433C1095.76 66.5919 1090.5 66.8149 1085.16 67.1121C1079.97 67.2608 1075.3 67.4838 1071.14 67.781V41.4713C1074.56 41.174 1078.41 40.8767 1082.71 40.5794C1087.01 40.2822 1091.39 40.1335 1095.84 40.1335C1100.43 39.9849 1104.73 39.9106 1108.74 39.9106C1121.2 39.9106 1131.5 41.5456 1139.66 44.8157C1147.96 48.0859 1154.19 53.2141 1158.34 60.2003C1162.65 67.1865 1164.8 76.328 1164.8 87.6248V162.764H1140.33ZM1101.4 165.885C1092.65 165.885 1084.94 164.324 1078.26 161.203C1071.74 158.081 1066.62 153.622 1062.91 147.825C1059.35 142.028 1057.57 135.042 1057.57 126.866C1057.57 117.948 1059.73 110.664 1064.03 105.016C1068.48 99.3676 1074.63 95.1313 1082.49 92.3071C1090.5 89.4829 1099.84 88.0708 1110.52 88.0708H1138.55V106.577H1110.07C1102.95 106.577 1097.47 108.36 1093.61 111.928C1089.9 115.347 1088.05 119.806 1088.05 125.306C1088.05 130.806 1089.9 135.265 1093.61 138.684C1097.47 142.102 1102.95 143.812 1110.07 143.812C1114.37 143.812 1118.3 143.069 1121.86 141.582C1125.57 139.947 1128.61 137.271 1130.98 133.555C1133.5 129.691 1134.91 124.488 1135.21 117.948L1142.77 126.644C1142.03 135.116 1139.96 142.251 1136.54 148.048C1133.28 153.845 1128.68 158.304 1122.75 161.426C1116.97 164.399 1109.85 165.885 1101.4 165.885Z" fill="white"/>
<path d="M1197.92 162.764V41.6943H1222.39V93.6449H1220.16C1220.16 81.4562 1221.72 71.2741 1224.83 63.0988C1227.95 54.7748 1232.54 48.5318 1238.63 44.3698C1244.85 40.0592 1252.57 37.9039 1261.76 37.9039H1263.09C1272.44 37.9039 1280.15 40.0592 1286.23 44.3698C1292.46 48.5318 1297.06 54.7748 1300.02 63.0988C1303.14 71.2741 1304.69 81.4562 1304.69 93.6449H1296.91C1296.91 81.4562 1298.46 71.2741 1301.58 63.0988C1304.84 54.7748 1309.51 48.5318 1315.59 44.3698C1321.82 40.0592 1329.53 37.9039 1338.73 37.9039H1340.06C1349.41 37.9039 1357.19 40.0592 1363.42 44.3698C1369.65 48.5318 1374.32 54.7748 1377.43 63.0988C1380.7 71.2741 1382.33 81.4562 1382.33 93.6449V162.764H1351.41V90.7463C1351.41 83.1656 1349.48 77.1455 1345.62 72.6862C1341.77 68.0783 1336.28 65.7744 1329.16 65.7744C1322.04 65.7744 1316.33 68.1526 1312.03 72.9092C1307.73 77.5171 1305.58 83.7601 1305.58 91.6382V162.764H1274.66V90.7463C1274.66 83.1656 1272.73 77.1455 1268.88 72.6862C1265.02 68.0783 1259.54 65.7744 1252.42 65.7744C1245.3 65.7744 1239.59 68.1526 1235.29 72.9092C1230.99 77.5171 1228.84 83.7601 1228.84 91.6382V162.764H1197.92Z" fill="white"/>
<path d="M1401.8 112.151V87.8478H1596V112.151H1401.8Z" fill="white"/>
</svg>
