<svg width="175" height="181" viewBox="0 0 175 181" fill="none" xmlns="http://www.w3.org/2000/svg">
<g clip-path="url(#clip0_321_973)">
<path d="M1.83789 11.2993C1.83789 6.0733 6.0615 1.8418 11.2777 1.8418H125.688V160.349C125.688 163.093 123.47 165.315 120.732 165.315H6.7943C4.05628 165.315 1.83789 163.093 1.83789 160.349V11.2993Z" fill="white" stroke="#00368D" stroke-width="5.52" stroke-linecap="round" stroke-linejoin="round"/>
<path d="M20.7172 1.8418H128.486C133.702 1.8418 137.926 6.07329 137.926 11.2993V23.4865C137.926 26.2296 135.707 28.4522 132.969 28.4522H25.6736C22.9356 28.4522 20.7172 26.2296 20.7172 23.4865V11.2993C20.7172 6.07329 16.4936 1.8418 11.2773 1.8418H20.7172Z" fill="#95A5A6" stroke="#00368D" stroke-width="5.52" stroke-linecap="round" stroke-linejoin="round"/>
<path d="M46.7578 51.2988H109.366" stroke="#00368D" stroke-width="5.52" stroke-linecap="round" stroke-linejoin="round"/>
<path d="M46.7578 60.7559H88.4077" stroke="#00368D" stroke-width="5.52" stroke-linecap="round" stroke-linejoin="round"/>
<path d="M46.7578 89.8555H109.366" stroke="#00368D" stroke-width="5.52" stroke-linecap="round" stroke-linejoin="round"/>
<path d="M46.7578 99.3125H82.6851" stroke="#00368D" stroke-width="5.52" stroke-linecap="round" stroke-linejoin="round"/>
<path d="M46.7578 129.654H109.366" stroke="#00368D" stroke-width="5.52" stroke-linecap="round" stroke-linejoin="round"/>
<path d="M46.7578 139.111H93.2042" stroke="#00368D" stroke-width="5.52" stroke-linecap="round" stroke-linejoin="round"/>
<path d="M39.7305 44.6973L23.6755 63.6456L14.3223 52.6063" fill="white"/>
<path d="M39.7305 44.6973L23.6755 63.6456L14.3223 52.6063" stroke="#00368D" stroke-width="5.52" stroke-linecap="round" stroke-linejoin="round"/>
<path d="M39.7305 84.5293L23.6755 103.471L14.3223 92.4383" fill="white"/>
<path d="M39.7305 84.5293L23.6755 103.471L14.3223 92.4383" stroke="#00368D" stroke-width="5.52" stroke-linecap="round" stroke-linejoin="round"/>
<path d="M39.7305 122.246L23.6755 141.194L14.3223 130.155" fill="white"/>
<path d="M39.7305 122.246L23.6755 141.194L14.3223 130.155" stroke="#00368D" stroke-width="5.52" stroke-linecap="round" stroke-linejoin="round"/>
<path d="M144.082 132.271H156.147" stroke="#00368D" stroke-width="5.52" stroke-linecap="round" stroke-linejoin="round"/>
<path d="M156.146 132.271C156.146 136.976 159.957 140.794 164.654 140.794C169.35 140.794 173.161 136.976 173.161 132.271C173.161 127.566 169.35 123.748 164.654 123.748C159.957 123.748 156.146 127.566 156.146 132.271Z" fill="#F57F17" stroke="#00368D" stroke-width="5.52" stroke-linecap="round" stroke-linejoin="round"/>
<path d="M159.322 99.9291C162.644 96.6006 162.644 91.2041 159.322 87.8756C156 84.5472 150.613 84.5472 147.291 87.8756C143.969 91.2041 143.969 96.6006 147.291 99.9291C150.613 103.258 156 103.258 159.322 99.9291Z" fill="#95A5A6" stroke="#00368D" stroke-width="5.52" stroke-linecap="round" stroke-linejoin="round"/>
<path d="M153.308 102.43V110.953C153.308 112.521 152.036 113.796 150.47 113.796H138.912" stroke="#00368D" stroke-width="5.52" stroke-linecap="round" stroke-linejoin="round"/>
<path d="M153.308 179.152C158.006 179.152 161.815 175.336 161.815 170.629C161.815 165.921 158.006 162.105 153.308 162.105C148.61 162.105 144.801 165.921 144.801 170.629C144.801 175.336 148.61 179.152 153.308 179.152Z" fill="#FDD835" stroke="#00368D" stroke-width="5.52" stroke-linecap="round" stroke-linejoin="round"/>
<path d="M153.308 162.105V153.582C153.308 152.013 152.036 150.738 150.47 150.738H138.912" stroke="#00368D" stroke-width="5.52" stroke-linecap="round" stroke-linejoin="round"/>
<path d="M122.194 165.083C140.284 157.576 148.875 136.798 141.382 118.673C133.888 100.549 113.149 91.9426 95.0583 99.4498C76.9679 106.957 68.3772 127.736 75.8705 145.86C83.3638 163.984 104.103 172.591 122.194 165.083Z" fill="#FDD835" stroke="#00368D" stroke-width="5.52" stroke-linecap="round" stroke-linejoin="round"/>
<path d="M123.903 141.883C123.903 144.5 121.791 146.615 119.18 146.615H98.0748C95.4634 146.615 93.3516 144.5 93.3516 141.883V122.648C93.3516 120.032 95.4634 117.916 98.0748 117.916H119.18C121.791 117.916 123.903 120.032 123.903 122.648" stroke="#00368D" stroke-width="5.52" stroke-linecap="round" stroke-linejoin="round"/>
<path d="M103.059 152.729V111.809" stroke="#00368D" stroke-width="5.52" stroke-linecap="round" stroke-linejoin="round"/>
<path d="M114.197 152.729V111.809" stroke="#00368D" stroke-width="5.52" stroke-linecap="round" stroke-linejoin="round"/>
</g>
<defs>
<clipPath id="clip0_321_973">
<rect width="175" height="181" fill="white"/>
</clipPath>
</defs>
</svg>
