<svg width="188" height="181" viewBox="0 0 188 181" fill="none" xmlns="http://www.w3.org/2000/svg">
<g clip-path="url(#clip0_321_1013)">
<path d="M96.262 134.457L59.6191 119.451L94.252 102.996L130.311 119.579L96.262 134.457Z" fill="white" stroke="#00368D" stroke-width="6.31" stroke-linecap="round" stroke-linejoin="round"/>
<path d="M130.31 162.093L96.2617 179.154V134.456L130.31 119.578V162.093Z" fill="#FDD835" stroke="#00368D" stroke-width="6.31" stroke-linecap="round" stroke-linejoin="round"/>
<path d="M59.6191 162.736L96.262 179.156V134.458L59.6191 119.451V162.736Z" fill="#F57F17" stroke="#00368D" stroke-width="6.31" stroke-linecap="round" stroke-linejoin="round"/>
<path d="M38.4886 35.0587L1.8457 20.0522L36.4785 3.59766L72.5371 20.1807L38.4886 35.0587Z" fill="white" stroke="#00368D" stroke-width="6.31" stroke-linecap="round" stroke-linejoin="round"/>
<path d="M72.5368 62.6941L38.4883 79.7559V35.0577L72.5368 20.1797V62.6941Z" fill="#95A5A6" stroke="#00368D" stroke-width="6.31" stroke-linecap="round" stroke-linejoin="round"/>
<path d="M1.8457 63.3379L38.4886 79.7574V35.0592L1.8457 20.0527V63.3379Z" fill="#95A5A6" stroke="#00368D" stroke-width="6.31" stroke-linecap="round" stroke-linejoin="round"/>
<path d="M152.104 33.3009L115.455 18.2944L150.094 1.8457L186.152 18.4229L152.104 33.3009Z" fill="#FDD835" stroke="#00368D" stroke-width="6.31" stroke-linecap="round" stroke-linejoin="round"/>
<path d="M186.152 60.9441L152.104 78V33.3018L186.152 18.4238V60.9441Z" fill="white" stroke="#00368D" stroke-width="6.31" stroke-linecap="round" stroke-linejoin="round"/>
<path d="M115.455 61.5859L152.104 77.9996V33.3014L115.455 18.2949V61.5859Z" fill="white" stroke="#00368D" stroke-width="6.31" stroke-linecap="round" stroke-linejoin="round"/>
<path d="M54.9668 47.9217L133.032 47.8633" stroke="#00368D" stroke-width="6.31" stroke-linecap="round" stroke-linejoin="round"/>
<path d="M87.3511 114.125L40.5469 88.8418" stroke="#00368D" stroke-width="6.31" stroke-linecap="round" stroke-linejoin="round"/>
<path d="M102.584 114.125L147.454 88.8418" stroke="#00368D" stroke-width="6.31" stroke-linecap="round" stroke-linejoin="round"/>
</g>
<defs>
<clipPath id="clip0_321_1013">
<rect width="188" height="181" fill="white"/>
</clipPath>
</defs>
</svg>
