<svg width="192" height="187" viewBox="0 0 192 187" fill="none" xmlns="http://www.w3.org/2000/svg">
<g clip-path="url(#clip0_321_1038)">
<path d="M138.936 185.093C167.19 185.093 190.096 162.155 190.096 133.86C190.096 105.565 167.19 82.627 138.936 82.627C110.681 82.627 87.7754 105.565 87.7754 133.86C87.7754 162.155 110.681 185.093 138.936 185.093Z" fill="white" stroke="#00368D" stroke-width="5.52" stroke-linecap="round" stroke-linejoin="round"/>
<path d="M52.1849 162.034H38.3002C24.9654 162.034 14.1602 151.234 14.1602 137.915V111.572" stroke="#00368D" stroke-width="5.52" stroke-linecap="round" stroke-linejoin="round"/>
<path d="M78.8345 159.527L56.839 144.969C54.8456 143.647 52.1855 145.079 52.1855 147.474V176.591C52.1855 178.986 54.8456 180.411 56.839 179.096L78.8345 164.538C80.6285 163.354 80.6285 160.718 78.8345 159.527Z" fill="#FDD835" stroke="#00368D" stroke-width="5.52" stroke-linecap="round" stroke-linejoin="round"/>
<path d="M117.814 29.7354L139.81 44.2937C141.803 45.6153 144.463 44.1835 144.463 41.7881V12.6784C144.463 10.283 141.803 8.85817 139.81 10.1729L117.814 24.7312C116.02 25.9151 116.02 28.5514 117.814 29.7423V29.7354Z" fill="#FDD835" stroke="#00368D" stroke-width="5.52" stroke-linecap="round" stroke-linejoin="round"/>
<path d="M144.455 27.2383H158.34C171.674 27.2383 182.487 38.0383 182.487 51.3575V77.7001" stroke="#00368D" stroke-width="5.52" stroke-linecap="round" stroke-linejoin="round"/>
<path d="M162.67 148.797C162.67 152.859 159.385 156.149 155.329 156.149H122.542C118.487 156.149 115.201 152.859 115.201 148.797V118.924C115.201 114.863 118.487 111.572 122.542 111.572H155.329C159.385 111.572 162.67 114.863 162.67 118.924" stroke="#00368D" stroke-width="5.52" stroke-linecap="round" stroke-linejoin="round"/>
<path d="M130.281 165.642V102.088" stroke="#00368D" stroke-width="5.52" stroke-linecap="round" stroke-linejoin="round"/>
<path d="M147.59 165.642V102.088" stroke="#00368D" stroke-width="5.52" stroke-linecap="round" stroke-linejoin="round"/>
<path d="M5.57385 64.0915H13.1623C14.0215 64.0915 14.7707 64.6628 15.0319 65.4888C15.7261 67.6708 16.5991 69.7702 17.6301 71.7733C18.0288 72.5373 17.9051 73.4735 17.2933 74.0861L11.9251 79.462C10.4885 80.9006 10.4885 83.2341 11.9251 84.6658L21.9399 94.6948C23.3765 96.1335 25.7066 96.1335 27.1363 94.6948L32.5046 89.3189C33.1163 88.7063 34.0443 88.5824 34.8141 88.9817C36.8143 90.021 38.9108 90.8952 41.0897 91.5836C41.9145 91.8451 42.485 92.5885 42.485 93.4558V101.055C42.485 103.086 44.1278 104.738 46.1624 104.738H60.3289C62.3566 104.738 64.0062 103.093 64.0062 101.055V93.4558C64.0062 92.5885 64.5768 91.8451 65.4016 91.5836C67.5805 90.8884 69.677 90.0142 71.6772 88.9817C72.4401 88.5824 73.3749 88.7063 73.9867 89.3189L79.355 94.6948C80.7915 96.1335 83.1217 96.1335 84.5514 94.6948L94.5662 84.6658C96.0028 83.2272 96.0028 80.8937 94.5662 79.462L89.198 74.0861C88.5862 73.4735 88.4625 72.5442 88.8611 71.7733C89.8991 69.7702 90.772 67.6708 91.4594 65.4888C91.7206 64.6628 92.4629 64.0915 93.329 64.0915H100.917C102.945 64.0915 104.595 62.4463 104.595 60.4089V46.2223C104.595 44.1917 102.952 42.5397 100.917 42.5397H93.329C92.4629 42.5397 91.7206 41.9684 91.4594 41.1424C90.7651 38.9604 89.8922 36.8609 88.8611 34.8579C88.4625 34.0938 88.5862 33.1577 89.198 32.5451L94.5662 27.1692C96.0028 25.7306 96.0028 23.3971 94.5662 21.9654L84.5514 11.9363C83.1148 10.4977 80.7847 10.4977 79.355 11.9363L73.9867 17.3122C73.3749 17.9248 72.447 18.0487 71.6772 17.6495C69.677 16.6101 67.5805 15.7359 65.4016 15.0476C64.5768 14.786 64.0062 14.0426 64.0062 13.1753V5.58298C64.0062 3.55239 62.3635 1.90039 60.3289 1.90039H46.1624C44.1347 1.90039 42.485 3.54551 42.485 5.58298V13.1822C42.485 14.0495 41.9145 14.7929 41.0897 15.0545C38.9108 15.7497 36.8143 16.6239 34.8141 17.6564C34.0511 18.0556 33.1163 17.9317 32.5046 17.3191L27.1363 11.9432C25.6997 10.5046 23.3696 10.5046 21.9399 11.9432L11.9251 21.9722C10.4885 23.4109 10.4885 25.7443 11.9251 27.1761L17.2933 32.552C17.9051 33.1646 18.0288 34.0938 17.6301 34.8648C16.5922 36.8678 15.7193 38.9672 15.0319 41.1493C14.7707 41.9753 14.0284 42.5466 13.1623 42.5466H5.57385C3.54615 42.5466 1.89648 44.1917 1.89648 46.2292V60.4157C1.89648 62.4463 3.53927 64.0983 5.57385 64.0983V64.0915Z" fill="#FDD835" stroke="#00368D" stroke-width="5.52" stroke-linecap="round" stroke-linejoin="round"/>
<path d="M58.3785 75.1416C70.412 72.2974 77.8647 60.2228 75.0245 48.1721C72.1844 36.1215 60.1268 28.6583 48.0933 31.5025C36.0598 34.3467 28.6071 46.4213 31.4473 58.4719C34.2874 70.5225 46.345 77.9858 58.3785 75.1416Z" fill="white" stroke="#00368D" stroke-width="5.52" stroke-linecap="round" stroke-linejoin="round"/>
</g>
<defs>
<clipPath id="clip0_321_1038">
<rect width="192" height="187" fill="white"/>
</clipPath>
</defs>
</svg>
