<svg width="273" height="273" viewBox="0 0 273 273" fill="none" xmlns="http://www.w3.org/2000/svg">
<g clip-path="url(#clip0_321_910)">
<path d="M220.71 218.931C219.03 218.931 217.67 217.571 217.67 215.891V51.9306C217.67 50.2506 219.03 48.8906 220.71 48.8906C222.39 48.8906 223.75 50.2506 223.75 51.9306V215.891C223.75 217.571 222.39 218.931 220.71 218.931Z" fill="#00368D"/>
<path d="M220.711 54.9706H51.9306C50.2506 54.9706 48.8906 53.6106 48.8906 51.9306C48.8906 50.2506 50.2506 48.8906 51.9306 48.8906H220.711C222.391 48.8906 223.751 50.2506 223.751 51.9306C223.751 53.6106 222.391 54.9706 220.711 54.9706Z" fill="#00368D"/>
<path d="M51.9306 223.751C50.2506 223.751 48.8906 222.391 48.8906 220.711V51.9306C48.8906 50.2506 50.2506 48.8906 51.9306 48.8906C53.6106 48.8906 54.9706 50.2506 54.9706 51.9306V220.711C54.9706 222.391 53.6106 223.751 51.9306 223.751Z" fill="#00368D"/>
<path d="M220.711 223.75H51.9306C50.2506 223.75 48.8906 222.39 48.8906 220.71C48.8906 219.03 50.2506 217.67 51.9306 217.67H220.711C222.391 217.67 223.751 219.03 223.751 220.71C223.751 222.39 222.391 223.75 220.711 223.75Z" fill="#00368D"/>
<path d="M129.39 184.909C121.97 184.909 115 182.019 109.76 176.779L95.3002 162.319C84.4702 151.489 84.4702 133.879 95.3002 123.049L121.69 96.6593C126.93 91.4193 133.91 88.5293 141.32 88.5293C148.73 88.5293 155.71 91.4193 160.95 96.6593L175.41 111.119C180.65 116.359 183.54 123.339 183.54 130.749C183.54 138.159 180.65 145.139 175.41 150.379L149.02 176.769C143.78 182.009 136.8 184.899 129.39 184.899V184.909Z" fill="#57D0FF"/>
<path d="M129.39 187.95C121.16 187.95 113.42 184.75 107.61 178.93L93.1501 164.47C81.1401 152.46 81.1401 132.91 93.1501 120.9L119.54 94.5102C125.36 88.6902 133.1 85.4902 141.32 85.4902C149.54 85.4902 157.28 88.6902 163.1 94.5102L177.56 108.97C183.38 114.79 186.58 122.53 186.58 130.75C186.58 138.97 183.38 146.72 177.56 152.53L151.17 178.92C145.35 184.74 137.62 187.94 129.39 187.94V187.95ZM141.32 91.5702C134.72 91.5702 128.51 94.1402 123.84 98.8102L97.4501 125.2C87.8101 134.84 87.8101 150.53 97.4501 160.17L111.91 174.63C116.58 179.3 122.79 181.87 129.39 181.87C135.99 181.87 142.2 179.3 146.88 174.63L173.27 148.24C177.94 143.57 180.51 137.36 180.51 130.76C180.51 124.16 177.94 117.95 173.27 113.27L158.81 98.8102C154.14 94.1402 147.93 91.5702 141.32 91.5702Z" fill="#00368D"/>
<path d="M162.484 124.048L148.024 109.588C144.322 105.886 138.319 105.886 134.617 109.588L108.228 135.977C104.526 139.68 104.526 145.682 108.228 149.384L122.688 163.844C126.39 167.547 132.393 167.547 136.095 163.844L162.484 137.455C166.186 133.753 166.186 127.751 162.484 124.048Z" fill="white"/>
<path d="M129.39 169.66C126.05 169.66 122.9 168.36 120.54 165.99L106.08 151.53C103.72 149.17 102.41 146.02 102.41 142.68C102.41 139.34 103.71 136.19 106.08 133.83L132.47 107.44C134.83 105.08 137.98 103.77 141.32 103.77C144.66 103.77 147.81 105.07 150.17 107.44L164.63 121.9C169.51 126.78 169.51 134.72 164.63 139.61L138.24 166C135.88 168.36 132.73 169.67 129.39 169.67V169.66ZM141.32 109.85C139.6 109.85 137.98 110.52 136.77 111.74L110.38 138.13C109.16 139.35 108.49 140.96 108.49 142.68C108.49 144.4 109.16 146.02 110.38 147.23L124.84 161.69C126.06 162.91 127.67 163.58 129.39 163.58C131.11 163.58 132.73 162.91 133.94 161.69L160.33 135.3C162.84 132.79 162.84 128.7 160.33 126.19L145.87 111.73C144.65 110.51 143.04 109.84 141.32 109.84V109.85Z" fill="#00368D"/>
<path d="M183.549 71.7913L139.779 115.561C135.159 120.181 135.159 127.671 139.779 132.291C144.399 136.911 151.889 136.911 156.509 132.291L200.279 88.5113L183.549 71.7812V71.7913Z" fill="#57D0FF"/>
<path d="M148.14 138.801C144.33 138.801 140.52 137.351 137.63 134.451C134.82 131.641 133.27 127.911 133.27 123.931C133.27 119.951 134.82 116.221 137.63 113.411L181.4 69.6405C182.59 68.4505 184.51 68.4505 185.7 69.6405C186.89 70.8305 186.89 72.7505 185.7 73.9405L141.93 117.711C140.27 119.371 139.35 121.581 139.35 123.931C139.35 126.281 140.26 128.491 141.93 130.151C145.36 133.581 150.93 133.581 154.36 130.151L198.13 86.3805C199.32 85.1905 201.24 85.1905 202.43 86.3805C203.62 87.5705 203.62 89.4905 202.43 90.6805L158.66 134.451C155.76 137.351 151.95 138.801 148.14 138.801Z" fill="#00368D"/>
<path d="M89.1812 199.62L130.801 158C135.421 153.38 135.421 145.89 130.801 141.27C126.181 136.65 118.691 136.65 114.071 141.27L72.4512 182.89L89.1812 199.62Z" fill="#57D0FF"/>
<path d="M89.1807 202.66C88.4007 202.66 87.6207 202.36 87.0307 201.77C85.8407 200.58 85.8407 198.66 87.0307 197.47L128.651 155.85C130.311 154.19 131.231 151.98 131.231 149.63C131.231 147.28 130.321 145.07 128.661 143.41C127.001 141.75 124.791 140.83 122.441 140.83C120.091 140.83 117.881 141.74 116.221 143.4L74.6007 185.02C73.4107 186.21 71.4907 186.21 70.3007 185.02C69.1107 183.83 69.1107 181.91 70.3007 180.72L111.921 139.1C114.731 136.29 118.461 134.74 122.431 134.74C126.401 134.74 130.141 136.29 132.951 139.1C135.761 141.91 137.311 145.64 137.311 149.61C137.311 153.58 135.761 157.32 132.951 160.13L91.3307 201.75C90.7407 202.34 89.9607 202.64 89.1807 202.64V202.66Z" fill="#00368D"/>
<path d="M252.348 3.03906H189.068C179.541 3.03906 171.818 10.7622 171.818 20.2891V83.5691C171.818 93.096 179.541 100.819 189.068 100.819H252.348C261.875 100.819 269.598 93.096 269.598 83.5691V20.2891C269.598 10.7622 261.875 3.03906 252.348 3.03906Z" fill="white"/>
<path d="M252.339 103.86H189.069C177.879 103.86 168.779 94.76 168.779 83.57V20.29C168.779 9.1 177.879 0 189.069 0H252.339C263.529 0 272.629 9.1 272.629 20.29V83.56C272.629 94.75 263.529 103.85 252.339 103.85V103.86ZM189.079 6.08C181.239 6.08 174.859 12.46 174.859 20.3V83.57C174.859 91.41 181.239 97.79 189.079 97.79H252.349C260.189 97.79 266.569 91.41 266.569 83.57V20.29C266.569 12.45 260.189 6.07 252.349 6.07H189.079V6.08Z" fill="#00368D"/>
<path d="M252.348 171.818H189.068C179.541 171.818 171.818 179.541 171.818 189.068V252.348C171.818 261.875 179.541 269.598 189.068 269.598H252.348C261.875 269.598 269.598 261.875 269.598 252.348V189.068C269.598 179.541 261.875 171.818 252.348 171.818Z" fill="#F57F17"/>
<path d="M252.339 272.639H189.069C177.879 272.639 168.779 263.539 168.779 252.349V189.079C168.779 177.889 177.879 168.789 189.069 168.789H252.339C263.529 168.789 272.629 177.889 272.629 189.079V252.349C272.629 263.539 263.529 272.639 252.339 272.639ZM189.069 174.859C181.229 174.859 174.849 181.239 174.849 189.079V252.349C174.849 260.189 181.229 266.569 189.069 266.569H252.339C260.179 266.569 266.559 260.189 266.559 252.349V189.079C266.559 181.239 260.179 174.859 252.339 174.859H189.069Z" fill="#00368D"/>
<path d="M83.5691 3.03906H20.2891C10.7622 3.03906 3.03906 10.7622 3.03906 20.2891V83.5691C3.03906 93.096 10.7622 100.819 20.2891 100.819H83.5691C93.096 100.819 100.819 93.096 100.819 83.5691V20.2891C100.819 10.7622 93.096 3.03906 83.5691 3.03906Z" fill="#F57F17"/>
<path d="M83.56 103.86H20.29C9.1 103.86 0 94.76 0 83.57V20.29C0 9.1 9.1 0 20.29 0H83.56C94.75 0 103.85 9.1 103.85 20.29V83.56C103.85 94.75 94.75 103.85 83.56 103.85V103.86ZM20.29 6.08C12.45 6.08 6.07 12.46 6.07 20.3V83.57C6.07 91.41 12.45 97.79 20.29 97.79H83.56C91.4 97.79 97.78 91.41 97.78 83.57V20.29C97.78 12.45 91.4 6.07 83.56 6.07H20.29V6.08Z" fill="#00368D"/>
<path d="M83.5691 171.818H20.2891C10.7622 171.818 3.03906 179.541 3.03906 189.068V252.348C3.03906 261.875 10.7622 269.598 20.2891 269.598H83.5691C93.096 269.598 100.819 261.875 100.819 252.348V189.068C100.819 179.541 93.096 171.818 83.5691 171.818Z" fill="white"/>
<path d="M83.56 272.639H20.29C9.1 272.639 0 263.539 0 252.349V189.079C0 177.889 9.1 168.789 20.29 168.789H83.56C94.75 168.789 103.85 177.889 103.85 189.079V252.349C103.85 263.539 94.75 272.639 83.56 272.639ZM20.29 174.859C12.45 174.859 6.07 181.239 6.07 189.079V252.349C6.07 260.189 12.45 266.569 20.29 266.569H83.56C91.4 266.569 97.78 260.189 97.78 252.349V189.079C97.78 181.239 91.4 174.859 83.56 174.859H20.29Z" fill="#00368D"/>
</g>
<defs>
<clipPath id="clip0_321_910">
<rect width="272.64" height="272.64" fill="white"/>
</clipPath>
</defs>
</svg>
