<svg width="277" height="190" viewBox="0 0 277 190" fill="none" xmlns="http://www.w3.org/2000/svg">
<g clip-path="url(#clip0_321_946)">
<path d="M191.159 19.5598L184.003 42.1484C183.497 43.7463 182.008 44.8382 180.331 44.8382H96.6671C94.9901 44.8382 93.501 43.7536 92.995 42.1484L85.8387 19.5598C84.8484 16.4506 87.9422 13.5945 90.9638 14.8309L114.515 24.4405C116.061 25.0695 117.832 24.6357 118.91 23.3631L135.55 3.65956C137.089 1.83744 139.894 1.83744 141.434 3.65956L158.074 23.3631C159.151 24.6357 160.929 25.0768 162.469 24.4405L186.02 14.8309C189.041 13.5945 192.135 16.4506 191.145 19.5598H191.159Z" fill="#FDD835" stroke="#00368D" stroke-width="6.31" stroke-linecap="round" stroke-linejoin="round"/>
<path d="M198.381 187.722C203.21 182.516 207.633 176.926 211.58 171.041C211.66 170.903 211.739 170.788 211.819 170.658C212.361 169.848 212.91 169.023 213.424 168.192C213.987 167.302 214.522 166.428 215.072 165.531C222.662 152.892 228.025 139.117 230.931 124.772C231.271 123.138 231.567 121.475 231.849 119.819C233.266 110.99 233.758 101.988 233.259 92.9062" stroke="#00368D" stroke-width="6.31" stroke-linecap="round" stroke-linejoin="round"/>
<path d="M231.843 119.818L231.857 119.768C234.084 112.132 239.028 105.249 246.322 100.693C255.148 95.1618 265.528 94.2218 274.723 97.2297C273.393 106.789 268 115.704 259.182 121.236C250.399 126.738 240.084 127.678 230.939 124.75" fill="#0061FF"/>
<path d="M231.843 119.818L231.857 119.768C234.084 112.132 239.028 105.249 246.322 100.693C255.148 95.1618 265.528 94.2218 274.723 97.2297C273.393 106.789 268 115.704 259.182 121.236C250.399 126.738 240.084 127.678 230.939 124.75" stroke="#00368D" stroke-width="6.31" stroke-linecap="round" stroke-linejoin="round"/>
<path d="M219.952 67.5845C220.436 77.9894 225.576 87.0567 233.267 92.9063C240.373 86.3698 244.645 76.8615 244.16 66.4565C243.676 56.0516 238.537 46.9844 230.86 41.1348C223.747 47.6713 219.475 57.1796 219.959 67.5845H219.952Z" fill="#0061FF" stroke="#00368D" stroke-width="6.31" stroke-linecap="round" stroke-linejoin="round"/>
<path d="M234.162 152.249C224.099 154.932 217.08 162.061 211.572 171.041C219.466 176.602 230.338 178.352 240.4 175.669C250.462 172.986 258.233 166.045 262.317 157.296C254.423 151.728 244.224 149.574 234.162 152.249Z" fill="#0061FF" stroke="#00368D" stroke-width="6.31" stroke-linecap="round" stroke-linejoin="round"/>
<path d="M78.6182 187.722C73.7895 182.516 69.3656 176.926 65.4188 171.041C65.3393 170.903 65.2598 170.788 65.1803 170.658C64.6381 169.848 64.0887 169.023 63.5755 168.192C63.0117 167.302 62.4768 166.428 61.9274 165.531C54.3374 152.892 48.9737 139.117 46.0678 124.772C45.7281 123.138 45.4317 121.475 45.1498 119.819C43.733 110.99 43.2415 101.988 43.7402 92.9062" stroke="#00368D" stroke-width="6.31" stroke-linecap="round" stroke-linejoin="round"/>
<path d="M45.1496 119.818L45.1351 119.768C42.9087 112.132 37.9644 105.249 30.6707 100.693C21.8446 95.1618 11.4643 94.2218 2.26953 97.2297C3.59959 106.789 8.99213 115.704 17.811 121.236C26.5938 126.738 36.909 127.678 46.0532 124.75" fill="#0061FF"/>
<path d="M45.1496 119.818L45.1351 119.768C42.9087 112.132 37.9644 105.249 30.6707 100.693C21.8446 95.1618 11.4643 94.2218 2.26953 97.2297C3.59959 106.789 8.99213 115.704 17.811 121.236C26.5938 126.738 36.909 127.678 46.0532 124.75" stroke="#00368D" stroke-width="6.31" stroke-linecap="round" stroke-linejoin="round"/>
<path d="M57.0486 67.5845C56.5642 77.9894 51.4247 87.0567 43.7335 92.9063C36.6278 86.3698 32.3557 76.8615 32.84 66.4565C33.3243 56.0516 38.4638 46.9844 46.1406 41.1348C53.2535 47.6713 57.5257 57.1796 57.0413 67.5845H57.0486Z" fill="#0061FF" stroke="#00368D" stroke-width="6.31" stroke-linecap="round" stroke-linejoin="round"/>
<path d="M42.837 152.249C52.8993 154.932 59.9182 162.061 65.4264 171.041C57.5328 176.602 46.661 178.352 36.5988 175.669C26.5365 172.986 18.7658 166.045 14.6816 157.296C22.5753 151.728 32.7748 149.574 42.837 152.249Z" fill="#0061FF" stroke="#00368D" stroke-width="6.31" stroke-linecap="round" stroke-linejoin="round"/>
<path d="M80.8875 64.0131H196.111C198.359 64.0131 200.188 65.8424 200.188 68.0912V183.341C200.188 185.589 198.359 187.419 196.111 187.419H80.8875C78.6394 187.419 76.8105 185.589 76.8105 183.341V68.084C76.8105 65.8352 78.6394 64.0059 80.8875 64.0059V64.0131Z" fill="white" stroke="#00368D" stroke-width="6.31" stroke-linecap="round" stroke-linejoin="round"/>
<path d="M100.296 82.1113H176.493C179.912 82.1113 182.695 84.8879 182.695 88.3152V134.208C182.695 137.628 179.919 140.412 176.493 140.412H100.296C96.8768 140.412 94.0938 137.636 94.0938 134.208V88.3152C94.0938 84.8951 96.8695 82.1186 100.289 82.1186L100.296 82.1113Z" fill="white" stroke="#00368D" stroke-width="6.31" stroke-linecap="round" stroke-linejoin="round"/>
<path d="M170.529 103.289C170.529 108.459 166.336 112.653 161.168 112.653C155.999 112.653 151.807 108.459 151.807 103.289C151.807 98.1196 155.999 93.9258 161.168 93.9258C166.336 93.9258 170.529 98.1196 170.529 103.289Z" fill="#FDD835" stroke="#00368D" stroke-width="6.31" stroke-linecap="round" stroke-linejoin="round"/>
<path d="M167.992 140.404L135.369 107.924C132.81 105.372 128.661 105.372 126.102 107.924L119.893 114.121" stroke="#00368D" stroke-width="6.31" stroke-linecap="round" stroke-linejoin="round"/>
<path d="M94.0938 88.4531L146.024 140.398" stroke="#00368D" stroke-width="6.31" stroke-linecap="round" stroke-linejoin="round"/>
<path d="M185.984 168.648H90.8047" stroke="#00368D" stroke-width="6.31" stroke-linecap="round" stroke-linejoin="round"/>
<path d="M90.8047 153.652H185.984" stroke="#00368D" stroke-width="6.31" stroke-linecap="round" stroke-linejoin="round"/>
</g>
<defs>
<clipPath id="clip0_321_946">
<rect width="277" height="190" fill="white"/>
</clipPath>
</defs>
</svg>
