<svg width="199" height="60" viewBox="0 0 199 60" fill="none" xmlns="http://www.w3.org/2000/svg">
<path d="M19.7478 15.7116C20.7185 15.7116 21.5054 14.9423 21.5054 13.9935C21.5054 13.0446 20.7185 12.2754 19.7478 12.2754C18.7771 12.2754 17.9902 13.0446 17.9902 13.9935C17.9902 14.9423 18.7771 15.7116 19.7478 15.7116Z" fill="#FDD835"/>
<path d="M23.0234 11.628C24.499 11.628 25.6953 10.4586 25.6953 9.01613C25.6953 7.57365 24.499 6.4043 23.0234 6.4043C21.5478 6.4043 20.3516 7.57365 20.3516 9.01613C20.3516 10.4586 21.5478 11.628 23.0234 11.628Z" fill="#FDD835"/>
<path d="M24.1321 18.2352C24.7768 18.2352 25.2994 17.7244 25.2994 17.0942C25.2994 16.464 24.7768 15.9531 24.1321 15.9531C23.4874 15.9531 22.9648 16.464 22.9648 17.0942C22.9648 17.7244 23.4874 18.2352 24.1321 18.2352Z" fill="#FDD835"/>
<path d="M18.7085 26.4663C18.8594 26.6399 19.0237 26.8047 19.2056 26.9522C19.9468 27.5596 20.8567 27.8807 21.8109 27.8807C21.9307 27.8807 22.0506 27.8764 22.1748 27.8633C23.2844 27.7679 24.2564 27.2429 24.9221 26.4663C25.9385 26.8828 26.8572 27.4902 27.6162 28.2495C28.6503 29.2821 29.3959 30.5836 29.7377 32.0371H42.5821C42.4578 30.7355 42.2093 29.4686 41.8453 28.2495C40.2387 22.8436 36.3996 18.3618 31.3754 15.8194V9.46337H35.5563V5.67578H27.5008V18.4182C28.8855 18.9042 30.1859 19.5636 31.3754 20.3663C34.2204 22.2839 36.4351 25.0346 37.6511 28.2538H32.5249C31.0736 25.5943 28.6104 23.5421 25.6456 22.5703C25.4059 21.9108 24.9931 21.3251 24.4339 20.8609C23.5995 20.1797 22.5477 19.8543 21.4647 19.9454C20.3818 20.0365 19.4009 20.5355 18.7041 21.3511C18.389 21.7156 18.1582 22.1234 17.994 22.5616C17.7987 23.0952 17.7144 23.6723 17.7676 24.2536C17.8431 25.078 18.1715 25.8416 18.7085 26.4663ZM21.6378 21.8934C22.774 21.798 23.7815 22.618 23.8791 23.733C23.9768 24.8437 23.1379 25.8285 21.9973 25.924C20.8567 26.0194 19.8536 25.1995 19.756 24.0844C19.6583 22.9738 20.4972 21.9889 21.6378 21.8934Z" fill="#FDD835"/>
<path d="M1.62606 32.1282C2.23855 32.6315 2.9753 32.9352 3.752 33.0263C3.91178 33.0436 4.07156 33.0566 4.23578 33.0566C4.35561 33.0566 4.47545 33.0523 4.59972 33.0393C6.83218 32.8484 8.4921 30.9134 8.29681 28.7311C8.20805 27.7245 7.73759 26.8134 6.97864 26.1409C8.25243 23.8328 10.0721 21.8457 12.2691 20.3619C13.4585 19.5593 14.759 18.8998 16.1437 18.4139V5.67578H8.07934V9.46337H12.2602V15.8238C8.17698 17.8933 4.87489 21.2427 2.91761 25.3253C2.22523 25.5552 1.60387 25.963 1.1201 26.5271C0.427725 27.3384 0.0948532 28.371 0.192496 29.4296C0.2857 30.4882 0.796103 31.447 1.6305 32.1282H1.62606ZM4.05825 27.0694C4.41331 27.039 4.75506 27.1084 5.0613 27.2386C5.73148 27.5249 6.23301 28.1454 6.29958 28.909C6.40166 30.0196 5.55839 31.0045 4.41775 31.0999C4.26241 31.113 4.10707 31.1043 3.95617 31.0869C3.01969 30.9611 2.26074 30.2235 2.17641 29.2647C2.07433 28.154 2.91761 27.1692 4.05825 27.0737V27.0694Z" fill="#FDD835"/>
<path d="M43.6692 39.2686C43.576 38.21 43.0656 37.2512 42.2312 36.57C41.5432 36.006 40.7 35.6893 39.8123 35.6502C39.6303 35.6416 39.4439 35.6416 39.262 35.6589C38.179 35.75 37.1982 36.249 36.5014 37.0646C36.2484 37.3596 36.0442 37.685 35.8889 38.0278C35.6181 38.6308 35.5027 39.2947 35.5649 39.9671C35.6359 40.7654 35.9421 41.503 36.4481 42.1147C33.5366 47.0737 28.0686 50.4231 21.8151 50.4231C14.5584 50.4231 8.35816 45.9197 5.98811 39.6244H11.2209C12.7476 42.2753 15.2863 44.297 18.3177 45.1865C18.5485 45.5683 18.8458 45.9153 19.2009 46.2104C19.9421 46.8178 20.8519 47.1388 21.8062 47.1388C21.926 47.1388 22.0458 47.1345 22.1701 47.1215C23.5282 47.0043 24.6689 46.2451 25.3124 45.1778C25.7296 44.4879 25.9427 43.6723 25.8628 42.8176C25.8051 42.1711 25.5876 41.5594 25.2414 41.0258C25.0195 40.6873 24.7488 40.3836 24.4248 40.119C23.5904 39.4378 22.5385 39.1124 21.4556 39.2035C20.3726 39.2947 19.3917 39.7936 18.6949 40.6092C18.5795 40.7437 18.4775 40.8869 18.3798 41.0344C17.5898 40.6743 16.8664 40.1971 16.2361 39.62C15.2952 38.7567 14.5673 37.6764 14.1324 36.4659C14.0569 36.2576 13.9903 36.0494 13.9327 35.8325H1.05273C1.17701 37.134 1.42555 38.4009 1.78949 39.62C4.31488 48.1063 12.3304 54.3235 21.8151 54.3235C29.7596 54.3235 36.6744 49.9546 40.194 43.5465C42.3111 43.2471 43.8556 41.3772 43.6647 39.2686H43.6692ZM21.6375 41.2123C22.7737 41.1169 23.7812 41.9369 23.8789 43.0519C23.9765 44.1626 23.1377 45.1474 21.997 45.2429C20.8564 45.3383 19.8533 44.5183 19.7557 43.4033C19.658 42.2926 20.4969 41.3078 21.6375 41.2123ZM39.8922 41.503C39.3152 41.5507 38.7782 41.3642 38.3699 41.0258C37.9704 40.6917 37.6997 40.2144 37.6509 39.6634C37.5532 38.5527 38.3921 37.5679 39.5327 37.4724C40.6689 37.377 41.672 38.197 41.7696 39.312C41.8672 40.4227 41.0284 41.4075 39.8878 41.503H39.8922Z" fill="#FDD835"/>
<path d="M58.9526 1.05068C58.9526 0.470405 58.4757 0 57.8874 0C57.2992 0 56.8223 0.470405 56.8223 1.05068V58.9493C56.8223 59.5296 57.2992 60 57.8874 60C58.4757 60 58.9526 59.5296 58.9526 58.9493V1.05068Z" fill="white"/>
<path d="M75.3875 26.0309C76.2022 27.0436 77.2564 27.8581 78.5445 28.4744C79.8326 29.0934 81.3766 29.4001 83.1739 29.4001C85.0785 29.4001 86.7272 29.0472 88.1144 28.3386C89.5016 27.6327 90.5997 26.6825 91.4089 25.4934C92.2154 24.3042 92.7025 22.9902 92.8649 21.5594H88.4006C88.1997 22.7241 87.6245 23.6363 86.6722 24.2988C85.7198 24.9612 84.5528 25.2925 83.1739 25.2925C82.2656 25.2925 81.4592 25.1458 80.7519 24.8499C80.0445 24.554 79.45 24.125 78.9683 23.5603C78.4867 22.9956 78.1261 22.3332 77.8784 21.573C77.6334 20.8128 77.5096 19.9739 77.5096 19.0617C77.5096 18.1495 77.6334 17.2861 77.8784 16.5232C78.1234 15.763 78.4784 15.1033 78.9408 14.5495C79.4032 13.9956 79.9784 13.5639 80.6693 13.2599C81.3574 12.9558 82.1473 12.8038 83.0391 12.8038C83.9308 12.8038 84.7317 12.9558 85.4474 13.2599C86.1657 13.5639 86.7492 13.9956 87.2034 14.5495C87.6575 15.1033 87.9465 15.7766 88.0758 16.5639H92.5677C92.4218 14.9893 91.9374 13.6155 91.1117 12.44C90.286 11.2671 89.1823 10.3495 87.8034 9.68702C86.4244 9.02458 84.8363 8.69336 83.0391 8.69336C81.2418 8.69336 79.8216 8.98386 78.561 9.56757C77.3004 10.1486 76.2545 10.925 75.4288 11.8915C74.6031 12.8581 73.9893 13.9359 73.5903 15.1277C73.1912 16.3196 72.9902 17.5223 72.9902 18.7413V19.3332C72.9902 20.4436 73.1857 21.5839 73.5765 22.7567C73.9673 23.9296 74.5701 25.021 75.3875 26.0336V26.0309Z" fill="white"/>
<path d="M108.941 27.1457C109.64 26.4479 110.169 25.647 110.535 24.7429C110.898 23.8389 111.08 22.8859 111.08 21.8814V21.2651C111.08 20.2443 110.89 19.2724 110.507 18.352C110.128 17.4289 109.583 16.6199 108.875 15.9221C108.168 15.2244 107.309 14.6733 106.302 14.2714C105.294 13.8696 104.147 13.666 102.859 13.666C101.57 13.666 100.472 13.8669 99.4539 14.2714C98.4383 14.6733 97.5713 15.2244 96.853 15.9221C96.1346 16.6199 95.5924 17.4316 95.2208 18.352C94.8493 19.2751 94.6621 20.2443 94.6621 21.2651V21.8814C94.6621 22.8832 94.8438 23.8389 95.2071 24.7429C95.5704 25.647 96.1016 26.4479 96.8007 27.1457C97.4998 27.8434 98.3558 28.3945 99.3741 28.7963C100.39 29.1981 101.551 29.4018 102.859 29.4018C104.166 29.4018 105.355 29.2009 106.371 28.7963C107.386 28.3945 108.245 27.8434 108.944 27.1457H108.941ZM104.981 25.2398C104.419 25.5981 103.709 25.7773 102.856 25.7773C102.003 25.7773 101.339 25.5981 100.759 25.2398C100.178 24.8814 99.7429 24.3791 99.4512 23.7357C99.1622 23.0923 99.0163 22.3755 99.0163 21.5882C99.0163 20.7466 99.1649 20.0081 99.4649 19.3728C99.765 18.7375 100.205 18.2325 100.786 17.8552C101.367 17.4805 102.058 17.2905 102.856 17.2905C103.654 17.2905 104.367 17.4778 104.939 17.8552C105.512 18.2325 105.952 18.7375 106.26 19.3728C106.569 20.0081 106.723 20.7466 106.723 21.5882C106.723 22.3755 106.574 23.0923 106.274 23.7357C105.974 24.3791 105.542 24.8814 104.981 25.2398Z" fill="white"/>
<path d="M114.835 28.8915H119.192V17.3422V14.1738H114.835H112.848V17.3422H114.835V28.8915Z" fill="white"/>
<path d="M116.524 12.7233C117.342 12.7233 117.944 12.5143 118.335 12.0935C118.726 11.6727 118.922 11.1405 118.922 10.4944C118.922 9.84824 118.726 9.28896 118.335 8.87086C117.944 8.45005 117.342 8.23828 116.524 8.23828C115.707 8.23828 115.104 8.45005 114.713 8.87086C114.322 9.29167 114.127 9.83466 114.127 10.4944C114.127 11.1541 114.322 11.6727 114.713 12.0935C115.104 12.5143 115.707 12.7233 116.524 12.7233Z" fill="white"/>
<path d="M131.905 13.7188H131.715C130.57 13.7188 129.599 13.9685 128.801 14.4708C128.002 14.973 127.408 15.7251 127.017 16.7269C126.874 17.0934 126.767 17.5034 126.676 17.9378V14.1776H123.219V28.8952H127.576V20.3269C127.576 19.5043 127.826 18.8364 128.324 18.326C128.823 17.8156 129.48 17.5604 130.298 17.5604C131.115 17.5604 131.732 17.8102 132.205 18.3124C132.676 18.8147 132.913 19.4581 132.913 20.2454V28.8925H137.269V20.4871C137.269 18.2147 136.81 16.5178 135.893 15.3966C134.977 14.278 133.647 13.7188 131.905 13.7188Z" fill="white"/>
<path d="M154.257 15.9202C153.55 15.2224 152.691 14.6713 151.683 14.2695C150.676 13.8677 149.528 13.6641 148.24 13.6641C146.952 13.6641 145.854 13.865 144.836 14.2695C143.82 14.6713 142.953 15.2224 142.235 15.9202C141.516 16.6179 140.974 17.4297 140.6 18.35C140.225 19.2704 140.041 20.2423 140.041 21.2632V21.8794C140.041 22.8813 140.223 23.8369 140.586 24.741C140.949 25.6451 141.48 26.446 142.177 27.1437C142.876 27.8414 143.732 28.3926 144.75 28.7944C145.766 29.1962 146.927 29.3998 148.235 29.3998C149.542 29.3998 150.731 29.1989 151.747 28.7944C152.762 28.3926 153.621 27.8414 154.32 27.1437C155.019 26.446 155.551 25.6451 155.914 24.741C156.277 23.8369 156.459 22.884 156.459 21.8794V21.2632C156.459 20.2423 156.269 19.2704 155.886 18.35C155.504 17.4297 154.961 16.6179 154.251 15.9202H154.257ZM151.656 23.7337C151.356 24.3772 150.924 24.8794 150.362 25.2378C149.801 25.5962 149.091 25.7754 148.238 25.7754C147.384 25.7754 146.721 25.5962 146.14 25.2378C145.559 24.8794 145.125 24.3772 144.833 23.7337C144.541 23.0903 144.398 22.3736 144.398 21.5862C144.398 20.7446 144.547 20.0061 144.847 19.3708C145.147 18.7356 145.587 18.2306 146.168 17.8532C146.748 17.4785 147.439 17.2885 148.238 17.2885C149.036 17.2885 149.749 17.4758 150.321 17.8532C150.894 18.2306 151.334 18.7356 151.642 19.3708C151.95 20.0061 152.105 20.7446 152.105 21.5862C152.105 22.3736 151.956 23.0903 151.656 23.7337Z" fill="white"/>
<path d="M168.197 13.7176H168.007C166.865 13.7176 165.894 13.9673 165.095 14.4696C164.297 14.9719 163.703 15.7239 163.312 16.7257C163.169 17.0922 163.061 17.5049 162.971 17.9366V14.1737H159.514V28.8913H163.871V20.323C163.871 19.5004 164.121 18.8325 164.619 18.3221C165.117 17.8117 165.775 17.5565 166.593 17.5565C167.41 17.5565 168.027 17.8062 168.497 18.3085C168.968 18.8108 169.205 19.4542 169.205 20.2415V28.8886H173.562V20.4832C173.562 18.2108 173.102 16.5139 172.185 15.3927C171.269 14.2741 169.94 13.7148 168.197 13.7148V13.7176Z" fill="white"/>
<path d="M175.982 14.1738V17.3422H177.97V28.8915H182.327V17.3422V14.1738H177.97H175.982Z" fill="white"/>
<path d="M177.291 12.4555H181.103L184.205 6.84375H179.741L177.291 12.4555Z" fill="white"/>
<path d="M198.008 16.5256C197.463 15.6568 196.67 15.0079 195.624 14.579C194.578 14.15 193.296 13.9355 191.771 13.9355C191.245 13.9355 190.681 13.9437 190.084 13.9627C189.484 13.9817 188.903 14.0061 188.342 14.0441C187.78 14.0794 187.29 14.1174 186.872 14.1527V17.7799C187.433 17.7446 188.061 17.7093 188.752 17.6713C189.44 17.636 190.114 17.6088 190.766 17.5898C191.419 17.5736 191.947 17.5627 192.346 17.5627C193.144 17.5627 193.725 17.75 194.088 18.1274C194.452 18.5021 194.633 19.0668 194.633 19.8188V19.8731H191.939C190.615 19.8731 189.442 20.0387 188.427 20.3699C187.411 20.7012 186.621 21.2116 186.057 21.9012C185.496 22.5907 185.215 23.4731 185.215 24.5455C185.215 25.531 185.441 26.3754 185.895 27.084C186.349 27.7926 186.979 28.3328 187.786 28.7075C188.592 29.0822 189.533 29.2722 190.604 29.2722C191.675 29.2722 192.514 29.0849 193.232 28.7075C193.948 28.3328 194.512 27.7953 194.92 27.0948C195.104 26.7799 195.25 26.4297 195.368 26.0523V28.8948H198.825V19.8704C198.825 18.5102 198.553 17.3971 198.008 16.5283V16.5256ZM194.633 23.4405C194.598 24.1736 194.452 24.7464 194.199 25.1591C193.945 25.5717 193.621 25.8622 193.232 26.0333C192.842 26.2043 192.401 26.2885 191.911 26.2885C191.149 26.2885 190.565 26.1066 190.155 25.7374C189.748 25.3708 189.542 24.8903 189.542 24.3012C189.542 23.674 189.745 23.1772 190.155 22.8107C190.563 22.4441 191.149 22.2595 191.911 22.2595H194.633V23.4405Z" fill="white"/>
<path d="M77.4545 33.0664H72.9902V52.6709H76.9123H77.4545H85.2409V48.8049H77.4545V33.0664Z" fill="#FDD835"/>
<path d="M97.2082 38.3583C96.1651 37.9293 94.8797 37.7148 93.3549 37.7148C92.8292 37.7148 92.265 37.723 91.6677 37.742C91.0677 37.761 90.487 37.7854 89.9255 37.8234C89.364 37.8587 88.8713 37.8967 88.4557 37.932V41.5592C89.0172 41.5239 89.6448 41.4886 90.3356 41.4506C91.0264 41.4126 91.698 41.3881 92.3503 41.3691C93.0026 41.3529 93.5311 41.342 93.9302 41.342C94.7283 41.342 95.3091 41.5293 95.6724 41.9067C96.0357 42.2814 96.2174 42.8461 96.2174 43.5981V43.6524H93.5228C92.1989 43.6524 91.0264 43.818 90.0108 44.1492C88.9952 44.4805 88.2053 44.9909 87.6438 45.6805C87.0823 46.37 86.7988 47.2524 86.7988 48.3248C86.7988 49.3103 87.0245 50.1547 87.4787 50.8633C87.9328 51.5719 88.5631 52.1121 89.3695 52.4868C90.176 52.8614 91.1173 53.0515 92.1879 53.0515C93.2586 53.0515 94.0981 52.8642 94.8137 52.4868C95.5293 52.1094 96.0935 51.5746 96.5009 50.8741C96.6853 50.5619 96.8311 50.209 96.9495 49.8316V52.6741H100.406V43.6497C100.406 42.2895 100.134 41.1764 99.589 40.3076C99.044 39.4388 98.2513 38.79 97.2055 38.361L97.2082 38.3583ZM96.2146 47.2198C96.1788 47.9529 96.033 48.5257 95.7797 48.9384C95.5265 49.351 95.2017 49.6415 94.8137 49.8126C94.4256 49.9836 93.9825 50.0678 93.4925 50.0678C92.7301 50.0678 92.1439 49.8859 91.7365 49.5167C91.3264 49.1501 91.1228 48.6696 91.1228 48.0805C91.1228 47.4533 91.3264 46.9565 91.7365 46.59C92.1439 46.2234 92.7301 46.0388 93.4925 46.0388H96.2146V47.2198Z" fill="#FDD835"/>
<path d="M118.4 39.635C117.82 38.9644 117.115 38.4459 116.292 38.0766C115.466 37.7101 114.544 37.5255 113.529 37.5255C112.367 37.5255 111.332 37.7807 110.424 38.2911C109.612 38.7472 108.963 39.4178 108.464 40.2785V33.0703H104.107V52.6748H107.564V49.4604C107.661 49.7101 107.768 49.9518 107.892 50.1771C108.418 51.1436 109.144 51.8821 110.069 52.3925C110.994 52.9029 112.064 53.1581 113.281 53.1581C114.352 53.1581 115.315 52.9653 116.165 52.5798C117.019 52.1943 117.748 51.6595 118.356 50.9699C118.965 50.2803 119.427 49.4794 119.746 48.5671C120.063 47.6549 120.222 46.6613 120.222 45.5861V44.9943C120.222 43.9192 120.063 42.9255 119.746 42.0133C119.427 41.1011 118.978 40.3083 118.398 39.6377L118.4 39.635ZM115.378 47.5029C115.07 48.1572 114.638 48.6622 114.085 49.0205C113.531 49.3789 112.882 49.5581 112.139 49.5581C111.522 49.5581 110.922 49.4142 110.341 49.1291C109.761 48.8441 109.285 48.426 108.913 47.8803C108.541 47.3346 108.354 46.6776 108.354 45.9065V44.9128C108.354 44.1065 108.53 43.4224 108.885 42.8576C109.241 42.2929 109.706 41.8585 110.289 41.5545C110.87 41.2504 111.486 41.0984 112.139 41.0984C112.882 41.0984 113.531 41.2721 114.085 41.6224C114.638 41.9726 115.07 42.4585 115.378 43.0857C115.687 43.7128 115.841 44.4459 115.841 45.2875C115.841 46.1291 115.687 46.8486 115.378 47.5029Z" fill="#FDD835"/>
<path d="M134.028 45.0721C133.013 44.2658 131.587 43.7663 129.754 43.5681L128.584 43.4595C127.803 43.3699 127.241 43.2178 126.897 43.0034C126.553 42.7889 126.38 42.4767 126.38 42.064C126.38 41.6513 126.578 41.2957 126.98 41.0432C127.379 40.7934 127.913 40.6685 128.584 40.6685C129.437 40.6685 130.082 40.8341 130.516 41.1654C130.951 41.4966 131.204 41.9038 131.279 42.3871H135.146C135.091 40.8124 134.474 39.607 133.294 38.7762C132.113 37.9427 130.563 37.5273 128.639 37.5273C127.439 37.5273 126.374 37.7065 125.441 38.0649C124.505 38.4233 123.776 38.95 123.25 39.6477C122.724 40.3454 122.46 41.2142 122.46 42.254C122.46 43.5083 122.909 44.5373 123.809 45.3409C124.706 46.1473 126.055 46.6387 127.852 46.8178L129.022 46.9264C130.002 47.035 130.684 47.2169 131.064 47.4776C131.447 47.7382 131.637 48.083 131.637 48.512C131.637 48.9952 131.386 49.3672 130.888 49.6251C130.39 49.8857 129.757 50.0133 128.997 50.0133C127.998 50.0133 127.249 49.8314 126.751 49.4622C126.25 49.0957 125.967 48.6803 125.892 48.2133H122.025C122.1 49.7717 122.733 50.9798 123.933 51.8377C125.13 52.6984 126.79 53.1273 128.915 53.1273C130.258 53.1273 131.427 52.9346 132.427 52.5491C133.426 52.1635 134.196 51.6097 134.741 50.8848C135.286 50.1599 135.559 49.3047 135.559 48.3192C135.559 46.959 135.049 45.8758 134.034 45.0694L134.028 45.0721Z" fill="#FDD835"/>
</svg>
