<svg width="1713" height="190" viewBox="0 0 1713 190" fill="none" xmlns="http://www.w3.org/2000/svg">
<path d="M20.8432 161.313C27.9265 169.832 37.0918 176.684 48.2911 181.869C59.4904 187.077 72.9152 189.658 88.5416 189.658C105.101 189.658 119.435 186.688 131.496 180.727C143.557 174.788 153.105 166.794 160.141 156.79C167.152 146.786 171.388 135.731 172.8 123.694H133.985C132.238 133.493 127.237 141.167 118.957 146.74C110.677 152.313 100.531 155.1 88.5416 155.1C80.6446 155.1 73.6331 153.867 67.4831 151.377C61.333 148.887 56.1641 145.279 51.9763 140.528C47.7885 135.777 44.6537 130.204 42.5 123.808C40.3702 117.413 39.2933 110.355 39.2933 102.681C39.2933 95.0066 40.3702 87.7433 42.5 81.3251C44.6298 74.9298 47.7168 69.3796 51.737 64.7201C55.7573 60.0606 60.7587 56.429 66.7652 53.8709C72.7477 51.3127 79.6156 50.0336 87.369 50.0336C95.1224 50.0336 102.086 51.3127 108.308 53.8709C114.554 56.429 119.627 60.0606 123.575 64.7201C127.524 69.3796 130.037 75.044 131.161 81.6678H170.215C168.947 68.4203 164.735 56.863 157.556 46.973C150.377 37.1059 140.781 29.3858 128.792 23.8127C116.803 18.2397 102.995 15.4531 87.369 15.4531C71.7426 15.4531 59.3947 17.8971 48.4347 22.8078C37.4747 27.6956 28.3812 34.228 21.2022 42.3592C14.0231 50.4905 8.6867 59.5581 5.21683 69.5851C1.74696 79.6121 0 89.7304 0 99.9858V104.965C0 114.307 1.69905 123.9 5.09713 133.767C8.49522 143.634 13.736 152.816 20.8432 161.335V161.313Z" fill="black"/>
<path d="M312.885 170.724C318.987 164.868 323.6 158.147 326.795 150.56C329.966 142.973 331.551 134.975 331.551 126.545V121.373C331.551 112.806 329.894 104.649 326.554 96.9255C323.239 89.1788 318.483 82.389 312.309 76.5334C306.135 70.6778 298.64 66.0526 289.847 62.6805C281.055 59.3084 271.037 57.5996 259.794 57.5996C248.552 57.5996 238.967 59.2857 230.078 62.6805C221.213 66.0526 213.646 70.6778 207.376 76.5334C201.106 82.389 196.374 89.2015 193.131 96.9255C189.887 104.672 188.254 112.806 188.254 121.373V126.545C188.254 134.953 189.839 142.973 193.01 150.56C196.181 158.147 200.818 164.868 206.92 170.724C213.022 176.58 220.493 181.205 229.381 184.577C238.246 187.949 248.384 189.658 259.794 189.658C271.205 189.658 281.583 187.972 290.448 184.577C299.312 181.205 306.807 176.58 312.909 170.724H312.885ZM278.316 154.729C273.415 157.737 267.218 159.241 259.77 159.241C252.323 159.241 246.534 157.737 241.465 154.729C236.396 151.722 232.6 147.507 230.054 142.107C227.532 136.707 226.258 130.692 226.258 124.084C226.258 117.021 227.556 110.824 230.174 105.492C232.793 100.161 236.636 95.9229 241.705 92.7559C246.774 89.6117 252.804 88.0168 259.77 88.0168C266.737 88.0168 272.959 89.5889 277.956 92.7559C282.953 95.9229 286.796 100.161 289.487 105.492C292.177 110.824 293.523 117.021 293.523 124.084C293.523 130.692 292.226 136.707 289.607 142.107C286.989 147.507 283.217 151.722 278.316 154.729Z" fill="black"/>
<path d="M363.914 185.918H401.748V88.5292V61.8125H363.914H346.658V88.5292H363.914V185.918Z" fill="black"/>
<path d="M378.589 49.5876C385.687 49.5876 390.921 47.8248 394.315 44.2763C397.709 40.7278 399.406 36.2407 399.406 30.7921C399.406 25.3434 397.709 20.6274 394.315 17.1018C390.921 13.5533 385.687 11.7676 378.589 11.7676C371.49 11.7676 366.256 13.5533 362.862 17.1018C359.468 20.6503 357.771 25.2289 357.771 30.7921C357.771 36.3552 359.468 40.7278 362.862 44.2763C366.256 47.8248 371.49 49.5876 378.589 49.5876V49.5876Z" fill="black"/>
<path d="M512.477 57.5996H510.825C500.865 57.5996 492.414 59.7036 485.471 63.9346C478.527 68.1656 473.356 74.5006 469.956 82.9396C468.711 86.0271 467.777 89.4805 466.987 93.1397V61.4646H436.916V185.443H474.816V113.265C474.816 106.336 476.995 100.71 481.328 96.4101C485.662 92.1105 491.384 89.9607 498.495 89.9607C505.606 89.9607 510.969 92.0648 515.087 96.2958C519.181 100.527 521.24 105.947 521.24 112.579V185.42H559.14V114.615C559.14 95.4724 555.142 81.1786 547.169 71.7333C539.196 62.3108 527.632 57.5996 512.477 57.5996V57.5996Z" fill="black"/>
<path d="M705.886 76.5334C699.772 70.6778 692.351 66.0526 683.645 62.6805C674.938 59.3084 665.019 57.5996 653.886 57.5996C642.754 57.5996 633.263 59.2857 624.461 62.6805C615.684 66.0526 608.191 70.6778 601.982 76.5334C595.774 82.389 591.087 89.2016 587.852 96.9255C584.617 104.649 583.023 112.806 583.023 121.373V126.545C583.023 134.953 584.594 142.973 587.733 150.56C590.873 158.147 595.464 164.868 601.483 170.724C607.525 176.58 614.923 181.205 623.724 184.577C632.502 187.949 642.54 189.658 653.839 189.658C665.138 189.658 675.414 187.972 684.192 184.577C692.969 181.205 700.391 176.58 706.433 170.724C712.475 164.868 717.066 158.147 720.206 150.56C723.346 142.973 724.916 134.975 724.916 126.545V121.373C724.916 112.806 723.274 104.649 719.968 96.9255C716.662 89.2016 711.975 82.389 705.838 76.5334H705.886ZM683.407 142.107C680.814 147.507 677.079 151.722 672.227 154.729C667.374 157.737 661.237 159.241 653.863 159.241C646.489 159.241 640.756 157.737 635.737 154.729C630.717 151.722 626.959 147.507 624.438 142.107C621.916 136.707 620.679 130.692 620.679 124.084C620.679 117.021 621.964 110.824 624.556 105.492C627.149 100.161 630.955 95.9229 635.974 92.7559C640.994 89.6117 646.964 88.0168 653.863 88.0168C660.761 88.0168 666.922 89.5889 671.87 92.7559C676.818 95.9229 680.624 100.161 683.288 105.492C685.952 110.824 687.284 117.021 687.284 124.084C687.284 130.692 685.999 136.707 683.407 142.107V142.107Z" fill="black"/>
<path d="M827.161 57.6225H825.509C815.571 57.6225 807.118 59.7265 800.173 63.9575C793.229 68.1884 788.056 74.5235 784.656 82.9625C783.411 86.05 782.477 89.5262 781.687 93.1626V61.4646H751.609V185.443H789.517V113.265C789.517 106.336 791.696 100.71 796.031 96.4101C800.365 92.1105 806.088 89.9608 813.2 89.9608C820.313 89.9608 825.677 92.0648 829.772 96.2958C833.866 100.527 835.926 105.947 835.926 112.579V185.42H873.834V114.615C873.834 95.4724 869.834 81.1786 861.86 71.7333C853.886 62.3108 842.32 57.5996 827.161 57.5996V57.6225Z" fill="black"/>
<path d="M894.906 61.8125V88.5292H912.162V185.918H949.996V88.5292V61.8125H912.162H894.906Z" fill="black"/>
<path d="M906.26 47.3208H939.362L966.297 0H927.531L906.26 47.3208Z" fill="black"/>
<path d="M1085.91 82.2376C1081.18 74.916 1074.31 69.4477 1065.24 65.8327C1056.17 62.2177 1045.05 60.4102 1031.83 60.4102C1027.27 60.4102 1022.38 60.4788 1017.2 60.639C1012 60.7991 1006.96 61.005 1002.09 61.3253C997.226 61.6228 992.978 61.9431 989.351 62.2405V92.8081C994.219 92.5107 999.66 92.2132 1005.65 91.8929C1011.62 91.5955 1017.46 91.3667 1023.12 91.2065C1028.77 91.0692 1033.36 90.9777 1036.82 90.9777C1043.74 90.9777 1048.77 92.5564 1051.92 95.7367C1055.07 98.8941 1056.65 103.653 1056.65 109.991V110.448H1033.29C1021.81 110.448 1011.64 111.844 1002.83 114.636C994.028 117.427 987.179 121.728 982.287 127.54C977.419 133.351 974.984 140.787 974.984 149.825C974.984 158.13 976.941 165.246 980.879 171.217C984.817 177.189 990.282 181.742 997.274 184.9C1004.27 188.057 1012.43 189.659 1021.71 189.659C1030.99 189.659 1038.27 188.08 1044.5 184.9C1050.71 181.742 1055.6 177.212 1059.13 171.309C1060.73 168.655 1061.99 165.703 1063.02 162.523V186.478H1092.99V110.426C1092.99 98.9628 1090.63 89.582 1085.91 82.2605V82.2376ZM1056.65 140.513C1056.34 146.69 1055.07 151.518 1052.88 154.996C1050.68 158.473 1047.87 160.922 1044.5 162.363C1041.11 163.804 1037.29 164.514 1033.05 164.514C1026.44 164.514 1021.38 162.981 1017.82 159.869C1014.29 156.78 1012.5 152.731 1012.5 147.766C1012.5 142.48 1014.27 138.293 1017.82 135.205C1021.35 132.116 1026.44 130.56 1033.05 130.56H1056.65V140.513V140.513Z" fill="black"/>
<path d="M1208.09 18.1895H1169.32V183.503H1203.38H1208.09H1275.7V150.903H1208.09V18.1895Z" fill="black"/>
<path d="M1379.62 62.8086C1370.56 59.1914 1359.4 57.3828 1346.16 57.3828C1341.6 57.3828 1336.7 57.4515 1331.51 57.6117C1326.3 57.772 1321.26 57.978 1316.38 58.2985C1311.51 58.5962 1307.23 58.9166 1303.62 59.2143V89.8C1308.49 89.5024 1313.94 89.2048 1319.94 88.8842C1325.94 88.5637 1331.77 88.3577 1337.44 88.1974C1343.1 88.0601 1347.69 87.9685 1351.16 87.9685C1358.09 87.9685 1363.13 89.5482 1366.29 92.7304C1369.44 95.8897 1371.02 100.652 1371.02 106.993V107.451H1347.62C1336.12 107.451 1325.94 108.847 1317.12 111.64C1308.3 114.433 1301.44 118.737 1296.57 124.552C1291.69 130.367 1289.23 137.808 1289.23 146.851C1289.23 155.161 1291.19 162.281 1295.13 168.256C1299.08 174.231 1304.55 178.787 1311.55 181.946C1318.56 185.106 1326.73 186.708 1336.03 186.708C1345.32 186.708 1352.61 185.128 1358.83 181.946C1365.04 178.764 1369.94 174.254 1373.48 168.348C1375.08 165.715 1376.35 162.739 1377.37 159.556V183.526H1407.39V107.428C1407.39 95.9584 1405.03 86.572 1400.3 79.2461C1395.56 71.9202 1388.68 66.4486 1379.6 62.8314L1379.62 62.8086ZM1370.99 137.533C1370.68 143.714 1369.42 148.545 1367.22 152.025C1365.02 155.504 1362.2 157.954 1358.83 159.396C1355.46 160.839 1351.61 161.548 1347.36 161.548C1340.74 161.548 1335.64 160.014 1332.11 156.901C1328.55 153.81 1326.78 149.758 1326.78 144.79C1326.78 139.502 1328.55 135.312 1332.11 132.222C1335.64 129.131 1340.74 127.574 1347.36 127.574H1370.99V137.533Z" fill="black"/>
<path d="M1563.65 73.5693C1558.61 67.9146 1552.49 63.542 1545.35 60.4285C1538.18 57.3379 1530.17 55.7811 1521.35 55.7811C1511.26 55.7811 1502.28 57.9331 1494.39 62.2371C1487.34 66.0832 1481.7 71.7379 1477.37 78.9951V18.2129H1439.54V183.527H1469.56V156.421C1470.39 158.527 1471.33 160.565 1472.4 162.465C1476.97 170.615 1483.28 176.842 1491.31 181.146C1499.34 185.45 1508.63 187.602 1519.2 187.602C1528.5 187.602 1536.86 185.976 1544.25 182.726C1551.66 179.475 1557.99 174.965 1563.27 169.15C1568.55 163.335 1572.57 156.581 1575.34 148.889C1578.09 141.197 1579.48 132.818 1579.48 123.752V118.761C1579.48 109.695 1578.09 101.316 1575.34 93.6241C1572.57 85.9318 1568.67 79.2469 1563.63 73.5923L1563.65 73.5693ZM1537.41 139.915C1534.73 145.432 1530.98 149.69 1526.18 152.712C1521.37 155.734 1515.73 157.245 1509.28 157.245C1503.93 157.245 1498.72 156.032 1493.67 153.628C1488.63 151.224 1484.5 147.698 1481.27 143.097C1478.04 138.495 1476.42 132.955 1476.42 126.453V118.074C1476.42 111.275 1477.95 105.506 1481.03 100.744C1484.11 95.9821 1488.15 92.3191 1493.22 89.7551C1498.26 87.191 1503.62 85.9089 1509.28 85.9089C1515.73 85.9089 1521.37 87.3741 1526.18 90.3274C1530.98 93.2806 1534.73 97.3786 1537.41 102.667C1540.09 107.955 1541.43 114.137 1541.43 121.234C1541.43 128.331 1540.09 134.397 1537.41 139.915V139.915Z" fill="black"/>
<path d="M1699.36 119.424C1690.54 112.624 1678.16 108.412 1662.24 106.741L1652.09 105.825C1645.3 105.07 1640.42 103.787 1637.43 101.979C1634.45 100.17 1632.94 97.5375 1632.94 94.0577C1632.94 90.5779 1634.66 87.5789 1638.15 85.4498C1641.62 83.3436 1646.25 82.2905 1652.09 82.2905C1659.49 82.2905 1665.09 83.687 1668.86 86.48C1672.64 89.273 1674.84 92.707 1675.48 96.7821H1709.06C1708.59 83.5038 1703.23 73.3391 1692.98 66.3337C1682.73 59.3054 1669.27 55.8027 1652.56 55.8027C1642.14 55.8027 1632.89 57.3137 1624.79 60.3356C1616.67 63.3576 1610.33 67.7989 1605.77 73.6825C1601.2 79.5662 1598.91 86.8921 1598.91 95.6603C1598.91 106.237 1602.8 114.914 1610.62 121.69C1618.41 128.49 1630.12 132.633 1645.73 134.144L1655.89 135.06C1664.39 135.976 1670.32 137.51 1673.62 139.707C1676.94 141.905 1678.59 144.813 1678.59 148.43C1678.59 152.505 1676.42 155.641 1672.09 157.816C1667.76 160.014 1662.27 161.09 1655.67 161.09C1646.99 161.09 1640.49 159.556 1636.17 156.442C1631.82 153.352 1629.36 149.849 1628.71 145.912H1595.13C1595.78 159.052 1601.27 169.24 1611.69 176.474C1622.09 183.732 1636.5 187.349 1654.95 187.349C1666.62 187.349 1676.77 185.723 1685.45 182.472C1694.13 179.222 1700.82 174.551 1705.55 168.439C1710.28 162.326 1712.65 155.115 1712.65 146.804C1712.65 135.335 1708.23 126.2 1699.41 119.401L1699.36 119.424Z" fill="black"/>
</svg>
